<?xml version="1.0" encoding="UTF-8" standalone="no" ?>
<!DOCTYPE svg PUBLIC "-//W3C//DTD SVG 1.1//EN" "http://www.w3.org/Graphics/SVG/1.1/DTD/svg11.dtd">
<svg xmlns="http://www.w3.org/2000/svg" xmlns:xlink="http://www.w3.org/1999/xlink" version="1.1" width="1024" height="1024" viewBox="0 0 1024 1024" xml:space="preserve">
<desc>Created with Fabric.js 3.1.0</desc>
<defs>
</defs>
<g transform="matrix(1 0 0 1 512 512)" id="background-logo"  >
<rect style="stroke: none; stroke-width: 1; stroke-dasharray: none; stroke-linecap: butt; stroke-dashoffset: 0; stroke-linejoin: miter; stroke-miterlimit: 4; fill: rgb(255,255,255); fill-rule: nonzero; opacity: 1;"  paint-order="stroke"  x="-512" y="-512" rx="0" ry="0" width="1024" height="1024" />
</g>
<g transform="matrix(1.5745007680491552 0 0 1.5745007680491552 512.0000075576036 384.69498110599085)" style="" id="logo-logo"  >
	<g transform="matrix(0.1952 0 0 -0.1952 0.0003952000000708722 -76.27408800000012)"  >
<path style="stroke: none; stroke-width: 1; stroke-dasharray: none; stroke-linecap: butt; stroke-dashoffset: 0; stroke-linejoin: miter; stroke-miterlimit: 4; fill: rgb(166,92,158); fill-rule: nonzero; opacity: 1;"  paint-order="stroke"  transform=" translate(-1624.9999999999998, -9720.16)" d="m 1534.66 9776.93 c 0 49.82 40.53 90.34 90.34 90.34 c 49.81 0 90.34 -40.52 90.34 -90.34 v -188.04 v -15.82 v 0 c 0 -84.69 68.66 -153.35 153.35 -153.35 v 0 v 153.35 v 203.86 c 0 134.37 -109.32 243.67 -243.69 243.67 c -134.37 0 -243.69 -109.3 -243.69 -243.67 v -167.55 h 153.35 v 167.55" stroke-linecap="round" />
</g>
	<g transform="matrix(0.1952 0 0 -0.1952 76.27449520000005 -0.0019879999999830034)"  >
<path style="stroke: none; stroke-width: 1; stroke-dasharray: none; stroke-linecap: butt; stroke-dashoffset: 0; stroke-linejoin: miter; stroke-miterlimit: 4; fill: rgb(52,112,162); fill-rule: nonzero; opacity: 1;"  paint-order="stroke"  transform=" translate(-2015.7850000000003, -9329.384999999998)" d="m 2072.55 9419.72 c 49.81 0 90.34 -40.52 90.34 -90.34 c 0 -49.81 -40.53 -90.34 -90.34 -90.34 h -188.04 h -15.82 v 0 c -84.69 0 -153.35 -68.65 -153.35 -153.34 v 0 h 153.35 h 203.86 c 134.37 0 243.68 109.32 243.68 243.68 c 0 134.37 -109.31 243.69 -243.68 243.69 H 1905 v -153.35 h 167.55" stroke-linecap="round" />
</g>
	<g transform="matrix(0.1952 0 0 -0.1952 0.0003952000000708722 76.27311200000008)"  >
<path style="stroke: none; stroke-width: 1; stroke-dasharray: none; stroke-linecap: butt; stroke-dashoffset: 0; stroke-linejoin: miter; stroke-miterlimit: 4; fill: rgb(166,92,158); fill-rule: nonzero; opacity: 1;"  paint-order="stroke"  transform=" translate(-1625.0000000000002, -8938.595000000001)" d="m 1715.34 8881.84 c 0 -49.82 -40.53 -90.35 -90.34 -90.35 c -49.81 0 -90.34 40.53 -90.34 90.35 v 188.04 v 15.82 v 0 c 0 84.69 -68.66 153.34 -153.35 153.34 v 0 v -153.34 v -203.86 c 0 -134.38 109.32 -243.69 243.69 -243.69 c 134.37 0 243.69 109.31 243.69 243.69 v 167.54 h -153.35 v -167.54" stroke-linecap="round" />
</g>
	<g transform="matrix(0.1952 0 0 -0.1952 -76.27410479999995 -0.0019879999999830034)"  >
<path style="stroke: none; stroke-width: 1; stroke-dasharray: none; stroke-linecap: butt; stroke-dashoffset: 0; stroke-linejoin: miter; stroke-miterlimit: 4; fill: rgb(52,112,162); fill-rule: nonzero; opacity: 1;"  paint-order="stroke"  transform=" translate(-1234.2129999999997, -9329.385000000002)" d="m 1177.45 9239.04 c -49.81 0 -90.34 40.53 -90.34 90.34 c 0 49.82 40.53 90.34 90.34 90.34 h 188.04 h 15.82 v 0 c 84.69 0 153.35 68.66 153.35 153.35 v 0 h -153.35 h -203.86 c -134.36 0 -243.684 -109.32 -243.684 -243.69 c 0 -134.36 109.324 -243.68 243.684 -243.68 H 1345 v 153.34 h -167.55" stroke-linecap="round" />
</g>
</g>
<g transform="matrix(1.5745007680491552 0 0 1.5745007680491552 512.1792569124424 689.9296082949309)"  >
<path style="stroke: none; stroke-width: 1; stroke-dasharray: none; stroke-linecap: butt; stroke-dashoffset: 0; stroke-linejoin: miter; stroke-miterlimit: 4; fill: rgb(52,112,162); fill-rule: nonzero; opacity: 1;"  paint-order="stroke"  transform=" translate(-141.23, 31.39)" d="M 1.66 -39.76 L 1.66 -39.76 Q 1.66 -41.42 2 -43.08 L 2 -43.08 L 8.45 -42.91 L 8.45 -50.55 Q 8.45 -53.65 9.47 -54.97 Q 10.49 -56.29 13.21 -56.29 L 13.21 -56.29 L 16.61 -56.29 L 17.25 -55.69 L 17.25 -42.82 L 27.91 -43.08 Q 28.38 -41.38 28.38 -39.76 L 28.38 -39.76 Q 28.38 -37.94 27.91 -36.36 L 27.91 -36.36 L 17.25 -36.53 L 17.25 -10.54 Q 17.25 -6.71 20.77 -6.71 L 20.77 -6.71 L 26.81 -6.71 Q 27.48 -4.76 27.48 -2.17 L 27.48 -2.17 Q 27.48 -0.85 27.31 -0.25 L 27.31 -0.25 Q 22.26 0.34 17.59 0.34 L 17.59 0.34 Q 13.13 0.34 10.79 -1.91 Q 8.45 -4.16 8.45 -8.62 L 8.45 -8.62 L 8.45 -36.45 L 2 -36.36 Q 1.66 -37.89 1.66 -39.76 Z M 34.75 -38.78 L 34.75 -38.78 Q 35.09 -40.06 36.02 -41.46 Q 36.96 -42.86 38.06 -43.58 L 38.06 -43.58 Q 44.05 -42.35 46.01 -35.85 L 46.01 -35.85 Q 49.49 -43.58 57.39 -43.58 L 57.39 -43.58 Q 59.47 -43.58 61.98 -43.08 L 61.98 -43.08 Q 61.98 -37.98 59.81 -34.54 L 59.81 -34.54 Q 59.01 -34.75 56.24 -34.96 L 56.24 -34.96 Q 50.3 -34.96 46.94 -28.38 L 46.94 -28.38 L 46.94 0 Q 45.28 0.34 42.52 0.34 L 42.52 0.34 Q 39.63 0.34 37.98 0 L 37.98 0 L 37.98 -29.82 Q 37.98 -35.73 34.75 -38.78 Z M 65.55 -11.64 L 65.55 -11.64 Q 65.55 -18.78 70.16 -22.43 Q 74.77 -26.08 82.24 -26.08 L 82.24 -26.08 Q 86.58 -26.08 90.61 -25.49 L 90.61 -25.49 L 90.61 -28.89 Q 90.61 -36.62 83.47 -36.62 L 83.47 -36.62 Q 78.38 -36.62 69.8 -33.3 L 69.8 -33.3 Q 68.73 -34.32 68.01 -36.21 Q 67.29 -38.1 67.2 -39.85 L 67.2 -39.85 Q 71.03 -41.55 76.02 -42.69 Q 81.01 -43.84 85.22 -43.84 L 85.22 -43.84 Q 91.89 -43.84 95.69 -40.19 Q 99.49 -36.53 99.49 -29.31 L 99.49 -29.31 L 99.49 -11.47 Q 99.49 -8.75 100 -6.99 Q 100.51 -5.23 101.91 -3.99 L 101.91 -3.99 Q 101.53 -2.68 100.55 -1.34 Q 99.57 0 98.51 0.59 L 98.51 0.59 Q 93.46 -0.38 91.55 -4.8 L 91.55 -4.8 Q 85.43 1.15 78.42 1.15 L 78.42 1.15 Q 75.28 1.15 72.75 0.02 Q 70.22 -1.1 68.69 -2.95 Q 67.16 -4.8 66.35 -7.03 Q 65.55 -9.26 65.55 -11.64 Z M 74.51 -12.36 L 74.51 -12.36 Q 74.51 -9.6 76.06 -7.8 Q 77.61 -5.99 80.33 -5.99 L 80.33 -5.99 Q 82.88 -5.99 85.6 -7.33 Q 88.32 -8.67 90.61 -11.21 L 90.61 -11.21 L 90.61 -19.5 Q 87.17 -19.84 82.79 -19.84 L 82.79 -19.84 Q 78.89 -19.84 76.7 -17.86 Q 74.51 -15.89 74.51 -12.36 Z M 108.5 -21.24 L 108.5 -21.24 Q 108.5 -27.06 110.02 -31.56 Q 111.55 -36.07 114.17 -38.74 Q 116.78 -41.42 119.96 -42.76 Q 123.15 -44.09 126.68 -44.09 L 126.68 -44.09 Q 130.5 -44.09 133.6 -42.91 Q 136.7 -41.72 138.57 -39.78 Q 140.44 -37.85 141.44 -35.58 Q 142.44 -33.3 142.44 -30.97 L 142.44 -30.97 Q 142.44 -26 137.89 -26 L 137.89 -26 Q 136.02 -26 134.15 -26.38 L 134.15 -26.38 Q 134.15 -26.81 134.15 -27.23 L 134.15 -27.23 Q 134.15 -37.13 126.51 -37.13 L 126.51 -37.13 Q 122.34 -37.13 120.07 -33.11 Q 117.8 -29.1 117.8 -21.24 L 117.8 -21.24 Q 117.8 -6.24 127.65 -6.24 L 127.65 -6.24 Q 132.37 -6.24 138.15 -10.62 L 138.15 -10.62 Q 139.38 -9.9 140.55 -8.33 Q 141.71 -6.75 142.01 -5.31 L 142.01 -5.31 Q 139 -2.29 134.92 -0.57 Q 130.84 1.15 126.25 1.15 L 126.25 1.15 Q 121.75 1.15 118.27 -0.64 Q 114.78 -2.42 112.68 -5.56 Q 110.58 -8.71 109.54 -12.66 Q 108.5 -16.61 108.5 -21.24 Z M 152.42 0 L 152.42 0 L 152.42 -63.42 L 152.93 -63.93 L 156.41 -63.93 Q 159.13 -63.93 160.17 -62.62 Q 161.21 -61.3 161.21 -58.2 L 161.21 -58.2 L 161.21 -37.94 Q 164.1 -40.57 167.67 -42.12 Q 171.24 -43.67 174.93 -43.67 L 174.93 -43.67 Q 178.89 -43.67 181.56 -41.74 Q 184.24 -39.8 185.38 -36.68 Q 186.53 -33.56 186.53 -29.4 L 186.53 -29.4 L 186.53 -9.22 Q 186.53 -3.99 187.89 -1.32 L 187.89 -1.32 Q 185.51 0.59 182.33 0.59 L 182.33 0.59 Q 179.73 0.59 178.65 -0.81 Q 177.57 -2.21 177.57 -5.14 L 177.57 -5.14 L 177.57 -27.23 Q 177.57 -31.73 176.38 -33.67 Q 175.19 -35.6 172.09 -35.6 L 172.09 -35.6 Q 169.5 -35.6 166.48 -34.13 Q 163.46 -32.67 161.21 -30.2 L 161.21 -30.2 L 161.21 0 Q 159.56 0.34 156.75 0.34 L 156.75 0.34 Q 154.16 0.34 152.42 0 Z M 199.02 -0.42 Q 198.26 -2.04 198.26 -4.8 Q 198.26 -7.56 199.02 -9.05 L 199.02 -9.05 Q 201.27 -10.28 204.42 -10.28 L 204.42 -10.28 Q 205.73 -10.28 207.3 -9.92 Q 208.88 -9.56 209.73 -9.05 L 209.73 -9.05 Q 210.53 -7.52 210.53 -4.8 L 210.53 -4.8 Q 210.53 -2.12 209.73 -0.42 L 209.73 -0.42 Q 207.98 0.68 204.42 0.68 L 204.42 0.68 Q 201.02 0.68 199.02 -0.42 L 199.02 -0.42 Z M 218.6 -39.59 L 218.6 -39.59 Q 218.6 -40.87 219.03 -42.91 L 219.03 -42.91 Q 221.92 -43.25 224.51 -43.25 L 224.51 -43.25 L 225.7 -43.25 Q 228.97 -43.25 230.86 -41.18 Q 232.75 -39.12 232.75 -35.51 L 232.75 -35.51 L 232.75 0 Q 231.09 0.34 228.33 0.34 L 228.33 0.34 Q 225.44 0.34 223.79 0 L 223.79 0 L 223.79 -31.86 Q 223.79 -34.28 222.94 -35.32 Q 222.09 -36.36 219.96 -36.36 L 219.96 -36.36 L 219.03 -36.36 Q 218.6 -38.27 218.6 -39.59 Z M 221.07 -54.88 L 221.07 -54.88 Q 221.07 -57.09 221.88 -58.79 L 221.88 -58.79 Q 223.79 -59.85 226.68 -59.85 L 226.68 -59.85 Q 227.87 -59.85 229.29 -59.54 Q 230.71 -59.22 231.43 -58.79 L 231.43 -58.79 Q 232.24 -57.09 232.24 -54.88 L 232.24 -54.88 Q 232.24 -52.76 231.43 -51.06 L 231.43 -51.06 Q 230.84 -50.59 229.39 -50.28 Q 227.95 -49.96 226.68 -49.96 L 226.68 -49.96 Q 223.45 -49.96 221.88 -51.06 L 221.88 -51.06 Q 221.07 -52.76 221.07 -54.88 Z M 249.4 -3.65 Q 243.2 -9.86 243.2 -21.5 Q 243.2 -33.13 249.4 -39.34 L 249.4 -39.34 Q 254.16 -44.09 261.98 -44.09 L 261.98 -44.09 Q 269.84 -44.09 274.59 -39.34 L 274.59 -39.34 Q 280.8 -33.13 280.8 -21.5 Q 280.8 -9.86 274.59 -3.65 L 274.59 -3.65 Q 269.79 1.15 261.98 1.15 L 261.98 1.15 Q 254.2 1.15 249.4 -3.65 L 249.4 -3.65 Z M 252.5 -21.5 L 252.5 -21.5 Q 252.5 -18.22 252.95 -15.59 Q 253.4 -12.96 254.42 -10.64 Q 255.44 -8.33 257.37 -7.03 Q 259.3 -5.73 261.98 -5.73 Q 264.65 -5.73 266.61 -7.03 Q 268.56 -8.33 269.6 -10.62 Q 270.64 -12.91 271.11 -15.59 Q 271.58 -18.27 271.58 -21.5 L 271.58 -21.5 Q 271.58 -24.68 271.11 -27.36 Q 270.64 -30.03 269.6 -32.35 Q 268.56 -34.66 266.61 -35.96 Q 264.65 -37.26 261.98 -37.26 Q 259.3 -37.26 257.37 -35.96 Q 255.44 -34.66 254.42 -32.35 Q 253.4 -30.03 252.95 -27.38 Q 252.5 -24.72 252.5 -21.5 Z" stroke-linecap="round" />
</g>
<g transform="matrix(1.5745007680491552 0 0 1.5745007680491552 512.0609331797235 794.2475974627894)"  >
<path style="stroke: none; stroke-width: 1; stroke-dasharray: none; stroke-linecap: butt; stroke-dashoffset: 0; stroke-linejoin: miter; stroke-miterlimit: 4; fill: rgb(166,92,158); fill-rule: nonzero; opacity: 1;"  paint-order="stroke"  transform=" translate(-256.5, 16.545)" d="M 0.84 -40.84 L 0.84 -40.84 Q 0.84 -42.34 1.09 -43.72 L 1.09 -43.72 L 30.53 -43.72 Q 30.91 -42.16 30.91 -41.03 L 30.91 -41.03 Q 30.91 -39.38 29.98 -38.66 Q 29.06 -37.94 27.06 -37.94 L 27.06 -37.94 L 22.91 -37.94 Q 22.5 -37.94 21.08 -37.98 Q 19.66 -38.03 19.19 -38.03 L 19.19 -38.03 L 19.19 0 Q 17.72 0.25 15.81 0.25 L 15.81 0.25 Q 13.81 0.25 12.34 0 L 12.34 0 L 12.34 -33.28 Q 12.34 -34.13 12.38 -35.63 Q 12.41 -37.13 12.41 -38.03 L 12.41 -38.03 L 12.34 -38.03 Q 11.94 -38.03 10.56 -37.98 Q 9.19 -37.94 8.72 -37.94 L 8.72 -37.94 L 1.09 -37.94 Q 0.84 -39.31 0.84 -40.84 Z M 31.59 -28.53 L 31.59 -28.53 Q 31.84 -29.47 32.53 -30.5 Q 33.22 -31.53 34.03 -32.06 L 34.03 -32.06 Q 38.44 -31.16 39.88 -26.38 L 39.88 -26.38 Q 42.44 -32.06 48.25 -32.06 L 48.25 -32.06 Q 49.78 -32.06 51.63 -31.69 L 51.63 -31.69 Q 51.63 -27.94 50.03 -25.41 L 50.03 -25.41 Q 49.44 -25.56 47.41 -25.72 L 47.41 -25.72 Q 43.03 -25.72 40.56 -20.88 L 40.56 -20.88 L 40.56 0 Q 39.34 0.25 37.31 0.25 L 37.31 0.25 Q 35.19 0.25 33.97 0 L 33.97 0 L 33.97 -21.94 Q 33.97 -26.28 31.59 -28.53 Z M 54.25 -8.56 L 54.25 -8.56 Q 54.25 -13.81 57.64 -16.5 Q 61.03 -19.19 66.53 -19.19 L 66.53 -19.19 Q 69.72 -19.19 72.69 -18.75 L 72.69 -18.75 L 72.69 -21.25 Q 72.69 -26.94 67.44 -26.94 L 67.44 -26.94 Q 63.69 -26.94 57.38 -24.5 L 57.38 -24.5 Q 56.59 -25.25 56.06 -26.64 Q 55.53 -28.03 55.47 -29.31 L 55.47 -29.31 Q 58.28 -30.56 61.95 -31.41 Q 65.63 -32.25 68.72 -32.25 L 68.72 -32.25 Q 73.63 -32.25 76.42 -29.56 Q 79.22 -26.88 79.22 -21.56 L 79.22 -21.56 L 79.22 -8.44 Q 79.22 -6.44 79.59 -5.14 Q 79.97 -3.84 81 -2.94 L 81 -2.94 Q 80.72 -1.97 80 -0.98 Q 79.28 0 78.5 0.44 L 78.5 0.44 Q 74.78 -0.28 73.38 -3.53 L 73.38 -3.53 Q 68.88 0.84 63.72 0.84 L 63.72 0.84 Q 61.41 0.84 59.55 0.02 Q 57.69 -0.81 56.56 -2.17 Q 55.44 -3.53 54.84 -5.17 Q 54.25 -6.81 54.25 -8.56 Z M 60.84 -9.09 L 60.84 -9.09 Q 60.84 -7.06 61.98 -5.73 Q 63.13 -4.41 65.13 -4.41 L 65.13 -4.41 Q 67 -4.41 69 -5.39 Q 71 -6.38 72.69 -8.25 L 72.69 -8.25 L 72.69 -14.34 Q 70.16 -14.59 66.94 -14.59 L 66.94 -14.59 Q 64.06 -14.59 62.45 -13.14 Q 60.84 -11.69 60.84 -9.09 Z M 85.84 -15.63 L 85.84 -15.63 Q 85.84 -19.91 86.97 -23.22 Q 88.09 -26.53 90.02 -28.5 Q 91.94 -30.47 94.28 -31.45 Q 96.63 -32.44 99.22 -32.44 L 99.22 -32.44 Q 102.03 -32.44 104.31 -31.56 Q 106.59 -30.69 107.97 -29.27 Q 109.34 -27.84 110.08 -26.17 Q 110.81 -24.5 110.81 -22.78 L 110.81 -22.78 Q 110.81 -19.13 107.47 -19.13 L 107.47 -19.13 Q 106.09 -19.13 104.72 -19.41 L 104.72 -19.41 Q 104.72 -19.72 104.72 -20.03 L 104.72 -20.03 Q 104.72 -27.31 99.09 -27.31 L 99.09 -27.31 Q 96.03 -27.31 94.36 -24.36 Q 92.69 -21.41 92.69 -15.63 L 92.69 -15.63 Q 92.69 -4.59 99.94 -4.59 L 99.94 -4.59 Q 103.41 -4.59 107.66 -7.81 L 107.66 -7.81 Q 108.56 -7.28 109.42 -6.13 Q 110.28 -4.97 110.5 -3.91 L 110.5 -3.91 Q 108.28 -1.69 105.28 -0.42 Q 102.28 0.84 98.91 0.84 L 98.91 0.84 Q 95.59 0.84 93.03 -0.47 Q 90.47 -1.78 88.92 -4.09 Q 87.38 -6.41 86.61 -9.31 Q 85.84 -12.22 85.84 -15.63 Z M 118.16 0 L 118.16 0 L 118.16 -46.66 L 118.53 -47.03 L 121.09 -47.03 Q 123.09 -47.03 123.86 -46.06 Q 124.63 -45.09 124.63 -42.81 L 124.63 -42.81 L 124.63 -27.91 Q 126.75 -29.84 129.38 -30.98 Q 132 -32.13 134.72 -32.13 L 134.72 -32.13 Q 137.63 -32.13 139.59 -30.7 Q 141.56 -29.28 142.41 -26.98 Q 143.25 -24.69 143.25 -21.63 L 143.25 -21.63 L 143.25 -6.78 Q 143.25 -2.94 144.25 -0.97 L 144.25 -0.97 Q 142.5 0.44 140.16 0.44 L 140.16 0.44 Q 138.25 0.44 137.45 -0.59 Q 136.66 -1.63 136.66 -3.78 L 136.66 -3.78 L 136.66 -20.03 Q 136.66 -23.34 135.78 -24.77 Q 134.91 -26.19 132.63 -26.19 L 132.63 -26.19 Q 130.72 -26.19 128.5 -25.11 Q 126.28 -24.03 124.63 -22.22 L 124.63 -22.22 L 124.63 0 Q 123.41 0.25 121.34 0.25 L 121.34 0.25 Q 119.44 0.25 118.16 0 Z M 150.78 -15.75 L 150.78 -15.75 Q 150.78 -20.59 152.23 -24.31 Q 153.69 -28.03 156.75 -30.23 Q 159.81 -32.44 164.16 -32.44 L 164.16 -32.44 Q 170.13 -32.44 173.48 -28.58 Q 176.84 -24.72 176.84 -18.75 L 176.84 -18.75 Q 176.84 -16.38 176.38 -13.69 L 176.38 -13.69 L 157.56 -13.69 Q 157.78 -9.34 159.47 -6.94 Q 161.16 -4.53 165 -4.53 L 165 -4.53 Q 169.22 -4.53 173.88 -6.97 L 173.88 -6.97 Q 174.66 -6.25 175.22 -5.05 Q 175.78 -3.84 176 -2.75 L 176 -2.75 Q 173.69 -1.09 170.48 -0.13 Q 167.28 0.84 163.97 0.84 L 163.97 0.84 Q 161.03 0.84 158.72 -0.06 Q 156.41 -0.97 154.94 -2.5 Q 153.47 -4.03 152.52 -6.2 Q 151.56 -8.38 151.17 -10.7 Q 150.78 -13.03 150.78 -15.75 Z M 157.56 -18.5 L 157.56 -18.5 L 170.5 -18.5 L 170.5 -19.31 Q 170.5 -22.94 168.92 -25.23 Q 167.34 -27.53 164.09 -27.53 L 164.09 -27.53 Q 161.09 -27.53 159.45 -25.17 Q 157.81 -22.81 157.56 -18.5 Z M 187.34 -2.69 Q 182.78 -7.25 182.78 -15.81 Q 182.78 -24.38 187.34 -28.94 L 187.34 -28.94 Q 190.84 -32.44 196.59 -32.44 L 196.59 -32.44 Q 202.38 -32.44 205.88 -28.94 L 205.88 -28.94 Q 210.44 -24.38 210.44 -15.81 Q 210.44 -7.25 205.88 -2.69 L 205.88 -2.69 Q 202.34 0.84 196.59 0.84 L 196.59 0.84 Q 190.88 0.84 187.34 -2.69 L 187.34 -2.69 Z M 189.63 -15.81 L 189.63 -15.81 Q 189.63 -13.41 189.95 -11.47 Q 190.28 -9.53 191.03 -7.83 Q 191.78 -6.13 193.2 -5.17 Q 194.63 -4.22 196.59 -4.22 Q 198.56 -4.22 200 -5.17 Q 201.44 -6.13 202.2 -7.81 Q 202.97 -9.5 203.31 -11.47 Q 203.66 -13.44 203.66 -15.81 L 203.66 -15.81 Q 203.66 -18.16 203.31 -20.13 Q 202.97 -22.09 202.2 -23.8 Q 201.44 -25.5 200 -26.45 Q 198.56 -27.41 196.59 -27.41 Q 194.63 -27.41 193.2 -26.45 Q 191.78 -25.5 191.03 -23.8 Q 190.28 -22.09 189.95 -20.14 Q 189.63 -18.19 189.63 -15.81 Z M 215.19 -2.38 L 215.19 -2.38 Q 215.25 -3.5 215.89 -4.84 Q 216.53 -6.19 217.38 -6.97 L 217.38 -6.97 Q 222.53 -4.16 226.34 -4.16 L 226.34 -4.16 Q 228.97 -4.16 230.5 -5.23 Q 232.03 -6.31 232.09 -8.13 L 232.09 -8.13 Q 232.09 -9.47 231.05 -10.61 Q 230 -11.75 228.06 -12.47 L 228.06 -12.47 L 224.47 -13.81 Q 216.34 -16.81 216.34 -22.97 L 216.34 -22.97 Q 216.34 -27.28 219.53 -29.86 Q 222.72 -32.44 227.63 -32.44 L 227.63 -32.44 Q 230.13 -32.44 233.08 -31.78 Q 236.03 -31.13 238.13 -30.16 L 238.13 -30.16 Q 238.13 -28.88 237.56 -27.45 Q 237 -26.03 236.13 -25.28 L 236.13 -25.28 Q 231.63 -27.41 227.63 -27.41 L 227.63 -27.41 Q 225.53 -27.41 224.27 -26.38 Q 223 -25.34 223 -23.69 L 223 -23.69 Q 223 -22.34 223.94 -21.47 Q 224.88 -20.59 226.97 -19.78 L 226.97 -19.78 L 230.81 -18.31 Q 238.94 -15.25 238.94 -8.72 L 238.94 -8.72 Q 238.94 -4.31 235.55 -1.73 Q 232.16 0.84 226.72 0.84 L 226.72 0.84 Q 220.53 0.84 215.19 -2.38 Z M 242.47 -29.25 L 242.47 -29.25 Q 242.47 -30.47 242.72 -31.69 L 242.72 -31.69 L 247.47 -31.56 L 247.47 -37.19 Q 247.47 -39.47 248.22 -40.44 Q 248.97 -41.41 250.97 -41.41 L 250.97 -41.41 L 253.47 -41.41 L 253.94 -40.97 L 253.94 -31.5 L 261.78 -31.69 Q 262.13 -30.44 262.13 -29.25 L 262.13 -29.25 Q 262.13 -27.91 261.78 -26.75 L 261.78 -26.75 L 253.94 -26.88 L 253.94 -7.75 Q 253.94 -4.94 256.53 -4.94 L 256.53 -4.94 L 260.97 -4.94 Q 261.47 -3.5 261.47 -1.59 L 261.47 -1.59 Q 261.47 -0.63 261.34 -0.19 L 261.34 -0.19 Q 257.63 0.25 254.19 0.25 L 254.19 0.25 Q 250.91 0.25 249.19 -1.41 Q 247.47 -3.06 247.47 -6.34 L 247.47 -6.34 L 247.47 -26.81 L 242.72 -26.75 Q 242.47 -27.88 242.47 -29.25 Z M 270.44 -2.69 Q 265.88 -7.25 265.88 -15.81 Q 265.88 -24.38 270.44 -28.94 L 270.44 -28.94 Q 273.94 -32.44 279.69 -32.44 L 279.69 -32.44 Q 285.47 -32.44 288.97 -28.94 L 288.97 -28.94 Q 293.53 -24.38 293.53 -15.81 Q 293.53 -7.25 288.97 -2.69 L 288.97 -2.69 Q 285.44 0.84 279.69 0.84 L 279.69 0.84 Q 273.97 0.84 270.44 -2.69 L 270.44 -2.69 Z M 272.72 -15.81 L 272.72 -15.81 Q 272.72 -13.41 273.05 -11.47 Q 273.38 -9.53 274.13 -7.83 Q 274.88 -6.13 276.3 -5.17 Q 277.72 -4.22 279.69 -4.22 Q 281.66 -4.22 283.09 -5.17 Q 284.53 -6.13 285.3 -7.81 Q 286.06 -9.5 286.41 -11.47 Q 286.75 -13.44 286.75 -15.81 L 286.75 -15.81 Q 286.75 -18.16 286.41 -20.13 Q 286.06 -22.09 285.3 -23.8 Q 284.53 -25.5 283.09 -26.45 Q 281.66 -27.41 279.69 -27.41 Q 277.72 -27.41 276.3 -26.45 Q 274.88 -25.5 274.13 -23.8 Q 273.38 -22.09 273.05 -20.14 Q 272.72 -18.19 272.72 -15.81 Z M 301.31 0 L 301.31 0 L 301.31 -31.44 L 301.69 -31.88 L 304.19 -31.88 Q 307.66 -31.88 307.84 -27.84 L 307.84 -27.84 Q 312.28 -32.19 316.91 -32.19 L 316.91 -32.19 Q 319.56 -32.19 321.42 -30.92 Q 323.28 -29.66 324.22 -27.47 L 324.22 -27.47 Q 329.38 -32.19 334.41 -32.19 L 334.41 -32.19 Q 338.44 -32.19 340.55 -29.38 Q 342.66 -26.56 342.66 -22.16 L 342.66 -22.16 L 342.66 -6.78 Q 342.66 -2.84 343.69 -0.97 L 343.69 -0.97 Q 341.94 0.44 339.5 0.44 L 339.5 0.44 Q 337.63 0.44 336.81 -0.61 Q 336 -1.66 336 -3.78 L 336 -3.78 L 336 -20.09 Q 336 -23.38 335.06 -24.78 Q 334.13 -26.19 332.16 -26.19 L 332.16 -26.19 Q 330.53 -26.19 328.7 -25.14 Q 326.88 -24.09 325.25 -22.28 L 325.25 -22.28 L 325.25 -22.22 L 325.25 0 Q 324.03 0.25 321.97 0.25 L 321.97 0.25 Q 319.88 0.25 318.66 0 L 318.66 0 L 318.66 -20.03 Q 318.66 -23.31 317.72 -24.75 Q 316.78 -26.19 314.81 -26.19 L 314.81 -26.19 Q 313.19 -26.19 311.33 -25.13 Q 309.47 -24.06 307.91 -22.28 L 307.91 -22.28 L 307.91 0 Q 306.69 0.25 304.63 0.25 L 304.63 0.25 Q 302.59 0.25 301.31 0 Z M 346.59 12.94 L 346.59 12.94 Q 346.56 12.72 346.56 12.53 L 346.56 12.53 Q 346.56 11.53 346.94 10.38 L 346.94 10.38 Q 347.38 8.97 348.06 8.19 L 348.06 8.19 Q 350.38 9.03 352.81 9.03 L 352.81 9.03 Q 355.84 9.03 357.58 7.05 Q 359.31 5.06 360.5 1.09 L 360.5 1.09 L 360.69 0.31 Q 358.63 0.25 357.47 -0.48 Q 356.31 -1.22 355.75 -3.13 L 355.75 -3.13 L 347.31 -31.09 Q 349.69 -32.06 351.34 -32.06 L 351.34 -32.06 Q 352.63 -32.06 353.42 -31.42 Q 354.22 -30.78 354.66 -29.13 L 354.66 -29.13 L 359.03 -14.41 Q 359.72 -12.19 361.38 -5 L 361.38 -5 Q 361.53 -4.53 361.97 -4.53 L 361.97 -4.53 L 369 -31.63 Q 370.13 -31.88 371.81 -31.88 L 371.81 -31.88 Q 373.75 -31.88 375.28 -31.44 L 375.28 -31.44 L 375.47 -31.03 L 367.03 -1.03 Q 365.88 2.94 364.78 5.47 Q 363.69 8 362.05 10.05 Q 360.41 12.09 358.14 13.02 Q 355.88 13.94 352.75 13.94 L 352.75 13.94 Q 351.31 13.94 349.47 13.63 Q 347.63 13.31 346.59 12.94 Z M 393.41 -21.63 L 393.41 -21.63 Q 393.41 -27.41 394.81 -31.89 Q 396.22 -36.38 398.67 -39.08 Q 401.13 -41.78 404.23 -43.16 Q 407.34 -44.53 410.97 -44.53 L 410.97 -44.53 Q 417.84 -44.53 422.11 -40.83 Q 426.38 -37.13 426.38 -32.06 L 426.38 -32.06 Q 426.38 -28.22 422.53 -28.22 L 422.53 -28.22 Q 421.34 -28.22 419.72 -28.59 L 419.72 -28.59 Q 419.72 -28.84 419.72 -29.06 L 419.72 -29.06 Q 419.72 -30.75 419.34 -32.31 L 419.34 -32.31 Q 418.91 -34.06 417.92 -35.63 Q 416.94 -37.19 415.11 -38.11 Q 413.28 -39.03 410.81 -39.03 L 410.81 -39.03 Q 405.78 -39.03 403.19 -34.58 Q 400.59 -30.13 400.59 -21.63 L 400.59 -21.63 Q 400.59 -13.75 403.39 -9.44 Q 406.19 -5.13 411.22 -5.13 L 411.22 -5.13 Q 416.78 -5.13 422.66 -9.97 L 422.66 -9.97 Q 423.78 -9.22 424.77 -7.97 Q 425.75 -6.72 426.06 -5.56 L 426.06 -5.56 Q 423.25 -2.75 419.02 -0.95 Q 414.78 0.84 410.06 0.84 L 410.06 0.84 Q 406.5 0.84 403.64 -0.42 Q 400.78 -1.69 398.91 -3.8 Q 397.03 -5.91 395.77 -8.83 Q 394.5 -11.75 393.95 -14.94 Q 393.41 -18.13 393.41 -21.63 Z M 431.28 -8.56 L 431.28 -8.56 Q 431.28 -13.81 434.67 -16.5 Q 438.06 -19.19 443.56 -19.19 L 443.56 -19.19 Q 446.75 -19.19 449.72 -18.75 L 449.72 -18.75 L 449.72 -21.25 Q 449.72 -26.94 444.47 -26.94 L 444.47 -26.94 Q 440.72 -26.94 434.41 -24.5 L 434.41 -24.5 Q 433.63 -25.25 433.09 -26.64 Q 432.56 -28.03 432.5 -29.31 L 432.5 -29.31 Q 435.31 -30.56 438.98 -31.41 Q 442.66 -32.25 445.75 -32.25 L 445.75 -32.25 Q 450.66 -32.25 453.45 -29.56 Q 456.25 -26.88 456.25 -21.56 L 456.25 -21.56 L 456.25 -8.44 Q 456.25 -6.44 456.63 -5.14 Q 457 -3.84 458.03 -2.94 L 458.03 -2.94 Q 457.75 -1.97 457.03 -0.98 Q 456.31 0 455.53 0.44 L 455.53 0.44 Q 451.81 -0.28 450.41 -3.53 L 450.41 -3.53 Q 445.91 0.84 440.75 0.84 L 440.75 0.84 Q 438.44 0.84 436.58 0.02 Q 434.72 -0.81 433.59 -2.17 Q 432.47 -3.53 431.88 -5.17 Q 431.28 -6.81 431.28 -8.56 Z M 437.88 -9.09 L 437.88 -9.09 Q 437.88 -7.06 439.02 -5.73 Q 440.16 -4.41 442.16 -4.41 L 442.16 -4.41 Q 444.03 -4.41 446.03 -5.39 Q 448.03 -6.38 449.72 -8.25 L 449.72 -8.25 L 449.72 -14.34 Q 447.19 -14.59 443.97 -14.59 L 443.97 -14.59 Q 441.09 -14.59 439.48 -13.14 Q 437.88 -11.69 437.88 -9.09 Z M 464.16 -28.53 L 464.16 -28.53 Q 464.41 -29.47 465.09 -30.5 Q 465.78 -31.53 466.59 -32.06 L 466.59 -32.06 Q 471 -31.16 472.44 -26.38 L 472.44 -26.38 Q 475 -32.06 480.81 -32.06 L 480.81 -32.06 Q 482.34 -32.06 484.19 -31.69 L 484.19 -31.69 Q 484.19 -27.94 482.59 -25.41 L 482.59 -25.41 Q 482 -25.56 479.97 -25.72 L 479.97 -25.72 Q 475.59 -25.72 473.13 -20.88 L 473.13 -20.88 L 473.13 0 Q 471.91 0.25 469.88 0.25 L 469.88 0.25 Q 467.75 0.25 466.53 0 L 466.53 0 L 466.53 -21.94 Q 466.53 -26.28 464.16 -28.53 Z M 486.09 -15.75 L 486.09 -15.75 Q 486.09 -20.59 487.55 -24.31 Q 489 -28.03 492.06 -30.23 Q 495.13 -32.44 499.47 -32.44 L 499.47 -32.44 Q 505.44 -32.44 508.8 -28.58 Q 512.16 -24.72 512.16 -18.75 L 512.16 -18.75 Q 512.16 -16.38 511.69 -13.69 L 511.69 -13.69 L 492.88 -13.69 Q 493.09 -9.34 494.78 -6.94 Q 496.47 -4.53 500.31 -4.53 L 500.31 -4.53 Q 504.53 -4.53 509.19 -6.97 L 509.19 -6.97 Q 509.97 -6.25 510.53 -5.05 Q 511.09 -3.84 511.31 -2.75 L 511.31 -2.75 Q 509 -1.09 505.8 -0.13 Q 502.59 0.84 499.28 0.84 L 499.28 0.84 Q 496.34 0.84 494.03 -0.06 Q 491.72 -0.97 490.25 -2.5 Q 488.78 -4.03 487.83 -6.2 Q 486.88 -8.38 486.48 -10.7 Q 486.09 -13.03 486.09 -15.75 Z M 492.88 -18.5 L 492.88 -18.5 L 505.81 -18.5 L 505.81 -19.31 Q 505.81 -22.94 504.23 -25.23 Q 502.66 -27.53 499.41 -27.53 L 499.41 -27.53 Q 496.41 -27.53 494.77 -25.17 Q 493.13 -22.81 492.88 -18.5 Z" stroke-linecap="round" />
</g>
</svg>